<svg xmlns="http://www.w3.org/2000/svg" xmlns:xlink="http://www.w3.org/1999/xlink" viewBox="0 0 256.12 64"><defs><style>.cls-1,.cls-2{fill:#fff;}.cls-2{stroke:#fff;stroke-miterlimit:10;}.cls-3{fill:url(#linear-gradient);}</style><linearGradient id="linear-gradient" y1="42.9" x2="53.36" y2="42.9" gradientUnits="userSpaceOnUse"><stop offset="0.05" stop-color="#22205f"/><stop offset="0.12" stop-color="#191761"/><stop offset="0.22" stop-color="#020267"/><stop offset="0.43" stop-color="#171767"/><stop offset="0.71" stop-color="#2b2b66"/><stop offset="0.89" stop-color="#336"/><stop offset="0.99" stop-color="#020267"/></linearGradient></defs><g id="Layer_2" data-name="Layer 2"><g id="AfterROOT-dark"><path id="T" class="cls-1" d="M242.11,22.77q-.21,6.63-.32,12.44c-.08,3.87-.11,7.21-.11,10a8.18,8.18,0,0,0,.39,3.31,1.68,1.68,0,0,0,1.56.65,7.43,7.43,0,0,0,1.06-.11,5.7,5.7,0,0,1,.9-.11.29.29,0,0,1,.22.06,1.4,1.4,0,0,1,0,.42c0,.47-.38.77-1.13.89a17.14,17.14,0,0,0-2.15.41,22.72,22.72,0,0,0-4.37,1.61,2.33,2.33,0,0,1-.5.21.63.63,0,0,1-.43-.11.4.4,0,0,1-.13-.34,5.15,5.15,0,0,1,.23-.88,7.72,7.72,0,0,0,.29-1.43c.14-1.12.25-3.08.31-5.86s.1-6.4.1-10.86v-2c0-3,0-5.06-.14-6.06a3.62,3.62,0,0,0-.49-1.87,2.63,2.63,0,0,0-1.42-.54,22.35,22.35,0,0,0-3.16-.17,28.65,28.65,0,0,0-4.08.24,9.62,9.62,0,0,0-2.68.73,4,4,0,0,0-1.23,1c-.38.43-.63.64-.76.64a.4.4,0,0,1-.34-.17.88.88,0,0,1-.12-.5s0-.12,0-.31a5.43,5.43,0,0,0,0-.58c0-.41,0-.88,0-1.44s0-.89,0-1v-.71c0-.28,0-.46.17-.55a1.07,1.07,0,0,1,.59-.13l1,0q5.81.16,12,.16,7.92,0,16.11-.11l2,0a1,1,0,0,1,.52.08c.09.06.13.18.13.37q0,1.37-1.11,1.41h-.17c-2.21.1-4.38.26-6.49.46S244.15,22.44,242.11,22.77Z"/><path id="O" class="cls-1" d="M220.89,35.57a15.74,15.74,0,0,1-5.15,12.26q-5.15,4.65-13.57,4.66-8.05,0-12.84-4.51t-4.78-12a15.71,15.71,0,0,1,5.15-12.17q5.15-4.69,13.36-4.69t13,4.52Q220.89,28.12,220.89,35.57Zm-17.83,15a12.54,12.54,0,0,0,9.64-4,14.77,14.77,0,0,0,3.7-10.44,15.88,15.88,0,0,0-3.83-10.95,12.44,12.44,0,0,0-9.71-4.3,13.12,13.12,0,0,0-9.94,4.05,14.61,14.61,0,0,0-3.87,10.53A15.3,15.3,0,0,0,193,46.27,13.13,13.13,0,0,0,203.06,50.53Z"/><path id="O-2" data-name="O" class="cls-1" d="M179.47,35.57a15.74,15.74,0,0,1-5.15,12.26q-5.15,4.65-13.57,4.66-8.06,0-12.84-4.51t-4.78-12a15.71,15.71,0,0,1,5.15-12.17q5.15-4.69,13.36-4.69t13,4.52Q179.47,28.12,179.47,35.57Zm-17.83,15a12.54,12.54,0,0,0,9.64-4A14.77,14.77,0,0,0,175,36.11a15.88,15.88,0,0,0-3.83-10.95,12.44,12.44,0,0,0-9.71-4.3,13.12,13.12,0,0,0-9.94,4.05,14.61,14.61,0,0,0-3.87,10.53,15.3,15.3,0,0,0,4,10.83A13.13,13.13,0,0,0,161.64,50.53Z"/><path id="R" class="cls-1" d="M123.48,48.29c0,.19-.73.62-2.18,1.29-1.27.58-2.34,1.08-3.21,1.52a36.62,36.62,0,0,0-3.44,2,11.46,11.46,0,0,1-2,1.14c-.13,0-.25-.09-.38-.29a1.05,1.05,0,0,1-.18-.55c0-.16.29-.44.89-.85a3.51,3.51,0,0,0,1.24-1.39,23.72,23.72,0,0,0,.44-5q.15-4.31.14-13.64V29.07q0-4-.15-5.1c-.1-.74-.27-1.11-.52-1.11a5.59,5.59,0,0,0-2.15.75,7.94,7.94,0,0,1-1.72.75q-.16,0-.27-.24a1.89,1.89,0,0,1-.1-.65c0-.12.13-.26.37-.44a17,17,0,0,1,1.63-.89,34.62,34.62,0,0,1,6.3-2.32,24.48,24.48,0,0,1,6-.78,8.8,8.8,0,0,1,6.19,2,7.35,7.35,0,0,1,2.21,5.7,8.45,8.45,0,0,1-1,4,11.3,11.3,0,0,1-3,3.51c-.16.15-.38.33-.67.55-.64.49-1,.85-1,1.06s1,1.64,2.89,3.88a66.66,66.66,0,0,0,6.5,6.53A30,30,0,0,0,141,49.67a11.72,11.72,0,0,1,2.3,1.51c0,.19-.33.41-1,.66a5.68,5.68,0,0,1-1.95.36,7.22,7.22,0,0,1-3.82-1.57,86.94,86.94,0,0,1-8.19-7.18q-3.54-3.39-4.83-4.82c-.86-1-1.3-1.59-1.3-1.89s.27-.46.81-.67,1-.43,1.32-.63a7.77,7.77,0,0,0,2.89-3,8.37,8.37,0,0,0,1.15-4.18A8.39,8.39,0,0,0,126.77,23a4.93,4.93,0,0,0-4-2.05,4.06,4.06,0,0,0-2.45.71,3.19,3.19,0,0,0-1.25,2,62.55,62.55,0,0,0-.4,6.42q-.18,5.33-.18,12.48v1.91a13.24,13.24,0,0,0,.25,3.4,1,1,0,0,0,1,.68,4.71,4.71,0,0,0,2.11-.55c.74-.37,1.13-.56,1.17-.56s.24.11.36.32A1.2,1.2,0,0,1,123.48,48.29Z"/><path id="r-2" data-name="r" class="cls-1" d="M100.65,37.17c1.53-1.88,4-4.49,6.16-4.15.11.2,0,2.68,0,3,0,.65-.35,1-1,1-6.64-.76-5,5.64-5.42,10.53a24.68,24.68,0,0,1-.21,3.41c-.25.07-3.91,3-3.17.85-.23-2.23,1.57-15.24-1.11-15.44-.86-.26-2.8,1.55-2.76,0,1.34-1.25,5.53-2.3,7-3.36C101.38,33,100.25,36.31,100.65,37.17Z"/><path id="e" class="cls-1" d="M78.82,43.62a6.84,6.84,0,0,0,1.82,4.28,5.62,5.62,0,0,0,4.09,1.46A7.77,7.77,0,0,0,88,48.75a7.59,7.59,0,0,0,2.62-2.06c.15-.18.33-.41.54-.7.32-.45.58-.67.76-.67a.57.57,0,0,1,.41.17.6.6,0,0,1,.16.42,4.73,4.73,0,0,1-.88,1.82,31.5,31.5,0,0,1-2.31,3.06,3.83,3.83,0,0,1-1.94,1.34,14.32,14.32,0,0,1-3.28.27,9,9,0,0,1-6.61-2.29,8.8,8.8,0,0,1-2.31-6.53A11.31,11.31,0,0,1,77.75,36a8,8,0,0,1,6.3-3.1,5.79,5.79,0,0,1,4,1.35,4.62,4.62,0,0,1,1.51,3.62c0,.87-.94,1.81-2.83,2.82A38.37,38.37,0,0,1,78.82,43.62ZM78.69,42a10.28,10.28,0,0,0,5-1.63,3.82,3.82,0,0,0,1.87-3.17,2.29,2.29,0,0,0-.69-1.71,2.48,2.48,0,0,0-1.8-.68,3.79,3.79,0,0,0-3.15,1.74,7.1,7.1,0,0,0-1.28,4.35c0,.17,0,.35,0,.54A5.12,5.12,0,0,0,78.69,42Z"/><path id="t-2" data-name="t" class="cls-1" d="M60.66,50.21q0-1.93,0-3.81c0-1.24,0-2.62,0-4.14,0-.92,0-1.89,0-2.91s0-2.11,0-3.24H59.42a.57.57,0,0,1-.36-.08.59.59,0,0,1-.09-.35.91.91,0,0,1,.39-.74l.17-.16,5-4.54a3.35,3.35,0,0,1,.5-.44.51.51,0,0,1,.3-.1.42.42,0,0,1,.29.12.41.41,0,0,1,.13.29,3.17,3.17,0,0,1-.22.53,10.34,10.34,0,0,0-1,3.21h6.54a.45.45,0,0,1,.43.22,1.89,1.89,0,0,1,.11.76,1.37,1.37,0,0,1-.15.81c-.1.11-.43.17-1,.17H64.35c-.1,1.27-.17,2.5-.22,3.7s-.08,2.33-.08,3.4c0,2.58.36,4.42,1.07,5.54a3.87,3.87,0,0,0,3.51,1.67,7.17,7.17,0,0,0,2.63-.55c.91-.37,1.4-.56,1.46-.56a.19.19,0,0,1,.15.1.37.37,0,0,1,.06.21v.32c0,.57-.76,1.16-2.3,1.78a11.86,11.86,0,0,1-4.45.94A8.56,8.56,0,0,1,63,51.79,6,6,0,0,1,60.66,50.21Z"/><path id="f" class="cls-1" d="M50.06,35.81c-.15,6.31-.5,23.43-.76,23.39a1.79,1.79,0,0,1-.81,1.07c-2.21,1.47-1.45-.2-1.86-4.17q-.18-4.69-.17-19.23c.24-1.56-1.63-.78-2.39-1.12-.81-2.35.59-1.88,2.3-1.9C44.52,20.75,58,17,56.32,23.19c-.46.89-.81.35-2.09.12-4.59-2.59-3.81,5.54-4.17,10.54.84.32,7.15-.83,6.54.95C57.26,36.69,51,35.49,50.06,35.81Z"/><g id="A"><path id="A_end" data-name="A end" class="cls-2" d="M25,23.93c2,6.5,7.34,21.2,11.85,28.36,1.17.82,2-1.4,3.5-2.15.72-.82,3.29-1.43,2.07-2.43C36,52.19,28.1,21.17,27,19.21Z"/><polygon id="A-left" class="cls-1" points="8.32 64 29.39 6.93 28.39 4.29 8.32 64 27.96 3.21 26.68 0 8.32 64 30.75 10.29 29.82 7.86 8.32 64"/><path id="CURVE" class="cls-3" d="M0,44.11c7.07,1.5,17.11-2.14,23.43-5-4.14,4.75,5.25,5.07,7.57,3,6.13-3.93,15.88-5.81,22.36.15-6.74-5-17-1.35-22.79,3.5-4.05,3.3-11.2,1-10.64-2.5C14.54,45.6,5.16,48.36,0,44.11Z"/></g></g></g></svg>